#!OML:ASF F:\Work\Patient Classification 1\justin\Session 1\justin.ASF
:FULLY-SPECIFIED
:DEGREES
4374
root 0.627619 17.1502 0.570745 -2.23965 61.5102 -1.63203
lowerback 14.7381 -0.538838 -1.58466
upperback 0.169705 -0.682117 3.11204
thorax -8.05095 -0.182212 4.38421
lowerneck 2.08511 -17.1972 -23.3488
upperneck -3.20072 -24.2256 27.5325
head 5.25854 -12.1057 10.1929
rclavicle 8.54774e-014 -2.70347e-014
rhumerus -8.11711 13.9063 -76.2519
rradius 132.538
rwrist -9.39703
rhand -11.2677 31.2394
rfingers 7.12502
rthumb 14.7626 1.78514
lclavicle 8.54774e-014 -2.70347e-014
lhumerus -18.0377 -33.7724 99.4384
lradius 134.604
lwrist -1.17788
lhand -16.7086 3.42148
lfingers 7.12502
lthumb 9.51648 33.1866
rfemur -20.039 -4.0249 1.03192
rtibia 30.6923
rfoot -7.84979 -14.0206
rtoes -6.09652
lfemur -3.29496 2.44116 -8.01716
ltibia 36.2477
lfoot -25.3683 -8.17321
ltoes -21.029
4375
root 0.633246 17.163 0.526763 -2.30222 60.984 -1.71191
lowerback 14.4222 -0.647657 -2.08808
upperback 0.410435 -0.896322 3.29591
thorax -7.5842 -0.276121 4.89985
lowerneck 1.41654 -17.0959 -23.509
upperneck -2.94627 -24.0133 27.6001
head 5.42474 -11.9467 10.2175
rclavicle 3.18055e-014 -7.95139e-015
rhumerus -7.40736 14.2181 -75.9029
rradius 133.228
rwrist -9.69791
rhand -14.6867 28.1007
rfingers 7.12502
rthumb 11.4669 -1.56573
lclavicle 3.18055e-014 -7.95139e-015
lhumerus -17.5103 -33.1178 98.992
lradius 135.01
lwrist -0.137705
lhand -15.3051 3.76122
lfingers 7.12502
lthumb 10.8704 33.4599
rfemur -20.5792 -4.96324 1.63855
rtibia 31.9377
rfoot -7.29689 -12.8976
rtoes -20.4138
lfemur -3.14889 2.20884 -8.32749
ltibia 36.1826
lfoot -25.4458 -7.04024
ltoes -22.191
4376
root 0.634348 17.1765 0.488817 -2.46121 60.5471 -1.87624
lowerback 14.4099 -0.597163 -2.09756
upperback 0.435767 -0.835464 3.24938
thorax -7.55645 -0.248439 4.84139
lowerneck 1.19232 -17.1273 -23.8157
upperneck -2.75418 -24.0789 27.7954
head 5.6078 -11.9553 10.2826
rclavicle 1.47896e-013 -3.4191e-014
rhumerus -7.45373 13.6003 -75.8178
rradius 133.927
rwrist -9.90961
rhand -12.7429 29.6486
rfingers 7.12502
rthumb 13.341 0.0956649
lclavicle 1.47896e-013 -3.4191e-014
lhumerus -17.5146 -33.2446 98.7929
lradius 135.266
lwrist 0.432988
lhand -15.0214 3.47244
lfingers 7.12502
lthumb 11.1441 33.1565
rfemur -21.027 -5.45334 2.23563
rtibia 33.1851
rfoot -7.07209 -11.7459
rtoes -21.7336
lfemur -3.07598 3.12385 -8.18623
ltibia 36.1664
lfoot -25.2376 -7.64715
ltoes -21.6526
4377
root 0.634466 17.1807 0.456576 -2.56303 60.1606 -1.92775
lowerback 14.0079 -0.623648 -2.64756
upperback 0.808709 -0.936385 3.50504
thorax -6.90758 -0.294984 5.43014
lowerneck 0.66541 -17.0738 -24.317
upperneck -2.87088 -23.9176 28.1269
head 5.74217 -11.8386 10.4487
rclavicle -6.57977e-014 1.11319e-014
rhumerus -6.86393 13.0835 -75.5653
rradius 134.445
rwrist -10.5223
rhand -11.023 30.9429
rfingers 7.12502
rthumb 14.9984 1.50608
lclavicle -6.57977e-014 1.11319e-014
lhumerus -16.577 -33.0209 98.6793
lradius 135.204
lwrist 0.456113
lhand -14.8759 3.67699
lfingers 7.12502
lthumb 11.2844 33.3534
rfemur -21.3733 -5.71606 2.71811
rtibia 34.4346
rfoot -6.9489 -10.4022
rtoes -21.1564
lfemur -2.96074 3.2459 -8.29115
ltibia 36.1961
lfoot -25.0901 -7.58981
ltoes -21.0642
